<svg xmlns="http://www.w3.org/2000/svg"  viewBox="0 0 48 48" width="512px" height="512px" fill-rule="evenodd" clip-rule="evenodd" baseProfile="basic"><path fill-rule="evenodd" d="M4.998,41.998v-26	c0-0.255,0.112-0.527,0.292-0.707l8-8c0.188-0.187,0.443-0.293,0.708-0.293h28c0.551,0,1,0.449,1,1v26	c0,0.825-0.333,1.575-0.875,2.117l-8.041,8.04c-0.539,0.523-1.275,0.843-2.084,0.843h-24C6.341,44.998,4.998,43.655,4.998,41.998z" clip-rule="evenodd"/><path fill="#fff" fill-rule="evenodd" d="M5.998,39.998V14.043	l0.017-0.06l7.973-7.976l0.068-0.009h27.941v26c0,0.552-0.223,1.049-0.583,1.411l-8.036,8.035c-0.352,0.343-0.841,0.555-1.381,0.555	h-24C6.893,41.998,5.998,41.103,5.998,39.998z" clip-rule="evenodd"/><path fill-rule="evenodd" d="M4.998,39.998v-26	c0-0.551,0.448-1,1-1h28c0.551,0,1,0.449,1,1v26c0,1.657-1.344,3-3,3h-24C6.341,42.998,4.998,41.655,4.998,39.998z M32.998,39.998	v-25h-26v25c0,0.552,0.448,1,1,1h24C32.549,40.998,32.998,40.55,32.998,39.998z" clip-rule="evenodd"/><path fill-rule="evenodd" d="M12.997,31.998V13.999	c0-0.551,0.448-1,1-1c0.551,0,1,0.449,1,1v17.999c0,0.552,0.448,1,1,1h17.001c0.551,0,1,0.449,1,1c0,0.552-0.449,1-1,1H15.997	C14.339,34.998,12.997,33.655,12.997,31.998z" clip-rule="evenodd"/><path fill-rule="evenodd" d="M32.709,42.117	c-0.391-0.391-0.391-1.024,0-1.415l8-7.999c0.179-0.18,0.289-0.428,0.289-0.705v-25H14.411l-7.707,7.708	c-0.391,0.391-1.024,0.391-1.415,0c-0.391-0.391-0.391-1.024,0-1.415l8-8c0.188-0.187,0.443-0.293,0.708-0.293h28	c0.551,0,1,0.449,1,1v26c0,0.825-0.333,1.575-0.875,2.117l-8,8.001C33.733,42.507,33.099,42.507,32.709,42.117z" clip-rule="evenodd"/><path fill-rule="evenodd" d="M6.29,41.706	c-0.391-0.391-0.391-1.024,0-1.415l8-8c0.391-0.391,1.024-0.391,1.415,0c0.391,0.391,0.391,1.024,0,1.415l-8,8	C7.314,42.097,6.681,42.097,6.29,41.706z" clip-rule="evenodd"/><path fill="#fff" fill-rule="evenodd" d="M20.998,35.998	c-0.852,0.632-1.539,1-2.851,1c-2.688,0-6.149-5.396-6.149-9c0-4.163,2.561-6,5-6c1.773,0,2.827,0.251,4,1c1.173-0.749,2.227-1,4-1	c2.439,0,5,1.837,5,6c0,3.604-3.461,9-6.149,9C22.537,36.998,21.85,36.63,20.998,35.998z" clip-rule="evenodd"/><path fill-rule="evenodd" d="M13.233,34.406	c-1.267-1.897-2.235-4.34-2.235-6.408c0-4.687,2.984-7,6-7c1.425,0,2.489,0.156,3.513,0.605l0.485,0.237l0.485-0.237	c1.024-0.449,2.088-0.605,3.516-0.605c3.019,0,6,2.309,6,7c0,2.068-0.969,4.511-2.236,6.408c-1.209,1.811-3.012,3.592-4.913,3.592	c-1.196,0-1.995-0.271-2.727-0.707l-0.125-0.085l-0.128,0.087c-0.732,0.437-1.531,0.705-2.721,0.705	C16.242,37.998,14.445,36.221,13.233,34.406z M20.402,35.195c0.353-0.263,0.837-0.263,1.191,0c0.736,0.545,1.22,0.803,2.256,0.803	c0.781,0,2.059-0.919,3.251-2.703c1.136-1.703,1.899-3.76,1.899-5.297c0-3.637-2.139-5-4-5c-1.645,0-2.495,0.225-3.463,0.844	c-0.328,0.209-0.748,0.209-1.076,0c-0.968-0.619-1.817-0.844-3.461-0.844c-1.857,0-4,1.367-4,5c0,1.537,0.761,3.595,1.897,5.297	c1.192,1.785,2.467,2.703,3.252,2.703C19.177,35.998,19.662,35.745,20.402,35.195z" clip-rule="evenodd"/><path fill-rule="evenodd" d="M19.998,21.998	c0-0.753-0.132-1.283-0.372-1.741c-0.248-0.473-0.647-0.937-1.292-1.509c-0.413-0.367-0.451-0.999-0.085-1.412	c0.367-0.413,0.999-0.451,1.412-0.085c0.727,0.644,1.328,1.297,1.737,2.08c0.417,0.796,0.6,1.657,0.6,2.668c0,0.552-0.449,1-1,1	C20.446,22.998,19.998,22.55,19.998,21.998z" clip-rule="evenodd"/><path fill-rule="evenodd" d="M33.29,14.706	c-0.391-0.391-0.391-1.024,0-1.415l8-8c0.391-0.391,1.024-0.391,1.415,0c0.391,0.391,0.391,1.024,0,1.415l-8,8	C34.314,15.097,33.681,15.097,33.29,14.706z" clip-rule="evenodd"/></svg>